<svg viewBox="0 0 6 5" fill="none" xmlns="http://www.w3.org/2000/svg">
<path fill-rule="evenodd" clip-rule="evenodd" d="M5.09589 0.813301H5.72019C5.83579 0.813301 5.9303 0.911103 5.9303 1.0307V4.5713H4.8857V1.0307C4.8857 0.911103 4.98019 0.813301 5.09589 0.813301V0.813301ZM1.1299 3.8066H1.75419C1.86979 3.8066 1.9644 3.8266 1.9644 3.8509V4.5713H0.919693V3.8509C0.919693 3.8266 1.0143 3.8066 1.1299 3.8066V3.8066ZM2.45179 2.0623H3.0761C3.1918 2.0623 3.28629 2.1601 3.28629 2.2798V4.5713H2.2416V2.2798C2.2416 2.1601 2.33619 2.0623 2.45179 2.0623V2.0623ZM3.77379 3.042H4.39809C4.51379 3.042 4.60839 3.1399 4.60839 3.2595V4.5713H3.5636V3.2595C3.5636 3.1399 3.65819 3.042 3.77379 3.042V3.042Z" fill="var(--c00)"/>
</svg>
